<svg xmlns="http://www.w3.org/2000/svg" enable-background="new 0 0 50 50" viewBox="0 0 50 50" id="video-call"><path d="M37.53467,1H12.46533c-1.6543,0-3,1.3457-3,3v42c0,1.6543,1.3457,3,3,3h25.06934c1.6543,0,3-1.3457,3-3V4
		C40.53467,2.3457,39.18896,1,37.53467,1z M12.46533,3h25.06934c0.55176,0,1,0.44873,1,1v4.02783H11.46533V4
		C11.46533,3.44873,11.91357,3,12.46533,3z M15.92822,39.97266v-5.70703c0-0.44824,0.26563-0.85254,0.74512-1.0625
		c5.60449-2.93457,11.0459-2.93555,16.70508,0.03223c0.41211,0.17773,0.67773,0.58203,0.67773,1.03027v5.70703H15.92822z
		 M34.23975,31.43213c-6.12891-3.21729-12.35059-3.21777-18.42676-0.03271c-1.14453,0.49414-1.88477,1.61914-1.88477,2.86621
		v5.70703h-2.45801V10.02783h27.04395v29.94482h-2.45801v-5.70703C36.05615,33.01855,35.31592,31.89355,34.23975,31.43213z
		 M37.53467,47H12.46533c-0.55176,0-1-0.44873-1-1v-4.02734h27.06934V46C38.53467,46.55127,38.08643,47,37.53467,47z"></path><path d="M26.67725 43.50049h-3.35449c-.55273 0-1 .44775-1 1s.44727 1 1 1h3.35449c.55273 0 1-.44775 1-1S27.22998 43.50049 26.67725 43.50049zM24.97705 14.11084c-3.29395 0-5.42285 2.25586-5.42285 5.74658 0 3.73975 2.43262 6.78223 5.42285 6.78223s5.42285-3.04248 5.42285-6.78223C30.3999 16.3667 28.271 14.11084 24.97705 14.11084zM24.97705 24.63965c-1.8877 0-3.42285-2.14551-3.42285-4.78223 0-2.38086 1.24805-3.74658 3.42285-3.74658s3.42285 1.36572 3.42285 3.74658C28.3999 22.49414 26.86475 24.63965 24.97705 24.63965z"></path></svg>